<svg width="310" height="55" viewBox="0 0 310 55" fill="none" xmlns="http://www.w3.org/2000/svg">
<path d="M69.228 18.916C69.228 19.108 69.168 19.384 69.048 19.744C66.768 19.744 64.212 19.9 61.38 20.212V38.104C61.38 39.256 61.152 40.12 60.696 40.696C60.264 41.272 59.508 41.68 58.428 41.92C57.42 42.136 56.184 42.232 54.72 42.208C54.6 41.92 54.54 41.608 54.54 41.272C54.54 40.96 54.588 40.696 54.684 40.48C55.572 40.432 56.184 40.228 56.52 39.868C56.88 39.508 57.06 38.872 57.06 37.96V13.66C57.06 12.34 56.928 11.68 56.664 11.68L55.404 11.752C55.26 11.488 55.188 11.176 55.188 10.816C55.188 10.456 55.236 10.168 55.332 9.952C58.932 8.848 62.964 8.296 67.428 8.296C69.42 8.296 71.064 8.368 72.36 8.512C72.504 8.8 72.576 9.112 72.576 9.448C72.576 9.664 72.516 9.952 72.396 10.312C71.892 10.216 70.896 10.168 69.408 10.168C66.312 10.168 63.624 10.324 61.344 10.636C61.368 10.708 61.38 10.936 61.38 11.32V18.268C63.708 18.028 66.252 17.896 69.012 17.872C69.156 18.16 69.228 18.508 69.228 18.916ZM89.269 18.916C89.269 19.108 89.209 19.384 89.089 19.744C86.953 19.744 83.857 19.96 79.801 20.392V30.22C79.801 31.156 79.993 31.78 80.377 32.092C80.761 32.404 81.505 32.56 82.609 32.56C83.833 32.56 85.561 32.452 87.793 32.236C90.049 31.996 91.453 31.804 92.005 31.66C92.101 32.068 92.149 32.38 92.149 32.596C92.149 32.812 92.101 33.1 92.005 33.46C89.221 34.132 85.537 34.468 80.953 34.468H79.369C78.025 34.468 77.041 34.252 76.417 33.82C75.793 33.388 75.481 32.692 75.481 31.732V13.66C75.481 12.34 75.349 11.68 75.085 11.68L73.825 11.752C73.681 11.488 73.609 11.176 73.609 10.816C73.609 10.456 73.657 10.168 73.753 9.952C77.449 8.848 81.481 8.296 85.849 8.296C87.841 8.296 89.485 8.368 90.781 8.512C90.925 8.8 90.997 9.112 90.997 9.448C90.997 9.664 90.937 9.952 90.817 10.312C90.169 10.216 89.173 10.168 87.829 10.168C84.733 10.168 82.045 10.324 79.765 10.636C79.789 10.708 79.801 10.936 79.801 11.32V18.484C82.633 18.1 85.717 17.896 89.053 17.872C89.197 18.16 89.269 18.508 89.269 18.916ZM114.126 10.24C114.51 10.936 114.702 11.92 114.702 13.192V29.5C114.702 30.124 114.57 30.7 114.306 31.228C114.066 31.732 113.718 32.164 113.262 32.524C112.518 33.148 111.162 33.628 109.194 33.964C107.85 34.228 105.834 34.384 103.146 34.432C102.498 34.456 101.286 34.468 99.5102 34.468C98.4062 34.468 97.5902 34.42 97.0622 34.324C96.5582 34.252 96.1862 34.084 95.9462 33.82C95.7302 33.532 95.6222 33.076 95.6222 32.452V13.768C95.6222 13.408 95.8262 13.156 96.2342 13.012C97.0982 12.724 98.1182 12.58 99.2942 12.58C99.7262 12.58 99.9422 12.796 99.9422 13.228V30.22C99.9422 31.156 100.134 31.78 100.518 32.092C100.902 32.404 101.646 32.56 102.75 32.56C105.774 32.56 107.802 32.344 108.834 31.912C109.866 31.48 110.382 30.616 110.382 29.32V13.696C110.382 12.784 110.274 12.088 110.058 11.608C109.866 11.104 109.518 10.756 109.014 10.564C108.534 10.348 107.838 10.24 106.926 10.24C104.91 10.24 102.702 10.42 100.302 10.78C97.9262 11.116 96.2102 11.464 95.1542 11.824C95.0102 11.56 94.9382 11.248 94.9382 10.888C94.9382 10.528 94.9862 10.24 95.0822 10.024C99.0422 8.896 103.614 8.332 108.798 8.332C110.31 8.332 111.486 8.476 112.326 8.764C113.166 9.052 113.766 9.544 114.126 10.24ZM120.271 32.56C119.911 31.864 119.731 30.88 119.731 29.608V13.264C119.731 11.416 120.775 10.12 122.863 9.376C124.951 8.656 128.299 8.296 132.907 8.296C134.443 8.296 135.631 8.44 136.471 8.728C137.311 9.016 137.911 9.508 138.271 10.204C138.631 10.9 138.811 11.884 138.811 13.156V29.5C138.811 31.348 137.767 32.632 135.679 33.352C133.615 34.096 130.267 34.468 125.635 34.468C124.123 34.468 122.935 34.324 122.071 34.036C121.231 33.748 120.631 33.256 120.271 32.56ZM133.951 31.228C134.311 30.796 134.491 30.16 134.491 29.32V13.66C134.491 12.748 134.383 12.052 134.167 11.572C133.975 11.068 133.627 10.72 133.123 10.528C132.643 10.312 131.947 10.204 131.035 10.204C129.043 10.204 127.555 10.312 126.571 10.528C125.611 10.744 124.939 11.08 124.555 11.536C124.195 11.992 124.027 12.628 124.051 13.444V29.104C124.051 30.016 124.147 30.724 124.339 31.228C124.555 31.708 124.903 32.056 125.383 32.272C125.887 32.464 126.595 32.56 127.507 32.56C129.547 32.56 131.047 32.44 132.007 32.2C132.967 31.984 133.615 31.66 133.951 31.228ZM153.388 8.296C155.668 8.296 157.84 8.392 159.904 8.584C160.048 8.824 160.12 9.172 160.12 9.628C160.12 9.988 160.072 10.3 159.976 10.564C158.056 10.348 155.74 10.252 153.028 10.276V30.58C153.028 31.9 153.16 32.56 153.424 32.56L155.692 32.488C155.788 32.656 155.836 32.884 155.836 33.172C155.836 33.364 155.8 33.568 155.728 33.784C154.144 34.24 152.608 34.468 151.12 34.468C150.352 34.468 149.8 34.432 149.464 34.36C149.152 34.312 148.936 34.192 148.816 34C148.72 33.784 148.684 33.424 148.708 32.92V10.564C145.9 10.78 143.464 11.128 141.4 11.608C141.256 11.272 141.184 10.936 141.184 10.6C141.184 10.408 141.232 10.096 141.328 9.664C144.784 8.752 148.804 8.296 153.388 8.296ZM162.118 34.108C162.046 33.94 162.01 33.628 162.01 33.172V31.336C162.01 30.928 162.046 30.652 162.118 30.508C162.214 30.364 162.418 30.268 162.73 30.22L165.466 30.112C165.73 30.088 165.898 30.16 165.97 30.328C166.066 30.496 166.114 30.808 166.114 31.264V33.1C166.114 33.508 166.066 33.784 165.97 33.928C165.898 34.072 165.706 34.168 165.394 34.216L162.658 34.324C162.394 34.348 162.214 34.276 162.118 34.108ZM174.851 10.78C172.475 11.116 170.759 11.464 169.703 11.824C169.559 11.56 169.487 11.248 169.487 10.888C169.487 10.528 169.535 10.24 169.631 10.024C173.591 8.896 178.163 8.332 183.347 8.332C184.859 8.332 186.035 8.476 186.875 8.764C187.715 9.052 188.315 9.544 188.675 10.24C189.059 10.936 189.251 11.92 189.251 13.192V30.58C189.251 31.9 189.383 32.56 189.647 32.56L191.915 32.488C192.011 32.656 192.059 32.884 192.059 33.172C192.059 33.364 192.023 33.568 191.951 33.784C190.367 34.24 188.831 34.468 187.343 34.468C186.575 34.468 186.023 34.432 185.687 34.36C185.375 34.312 185.159 34.192 185.039 34C184.943 33.784 184.907 33.424 184.931 32.92V19.852C182.075 20.308 178.859 20.572 175.283 20.644V30.58C175.283 31.9 175.415 32.56 175.679 32.56L177.947 32.488C178.043 32.656 178.091 32.884 178.091 33.172C178.091 33.364 178.055 33.568 177.983 33.784C176.399 34.24 174.863 34.468 173.375 34.468C172.607 34.468 172.055 34.432 171.719 34.36C171.407 34.312 171.203 34.192 171.107 34C171.011 33.784 170.963 33.424 170.963 32.92V13.768C170.963 13.408 171.167 13.156 171.575 13.012C172.439 12.724 173.459 12.58 174.635 12.58C175.067 12.58 175.283 12.796 175.283 13.228V18.772C177.179 18.748 180.395 18.484 184.931 17.98V13.696C184.931 12.784 184.823 12.088 184.607 11.608C184.415 11.104 184.067 10.756 183.563 10.564C183.083 10.348 182.387 10.24 181.475 10.24C179.459 10.24 177.251 10.42 174.851 10.78ZM198.713 34.468C196.457 34.468 194.693 34.408 193.421 34.288C193.301 34.048 193.241 33.772 193.241 33.46C193.241 33.148 193.289 32.884 193.385 32.668C194.177 32.788 195.521 32.848 197.417 32.848C198.641 32.848 199.505 32.74 200.009 32.524C200.489 32.332 200.729 31.948 200.729 31.372C200.729 31.132 200.561 30.7 200.225 30.076L195.185 22.12C194.609 21.256 194.237 20.596 194.069 20.14C193.901 19.684 193.817 19.156 193.817 18.556C193.817 16.516 196.109 15.496 200.693 15.496C202.085 15.496 203.177 15.544 203.969 15.64C204.113 15.928 204.185 16.204 204.185 16.468C204.185 16.684 204.125 16.948 204.005 17.26C203.333 17.164 202.301 17.116 200.909 17.116C199.061 17.116 198.137 17.596 198.137 18.556C198.137 18.964 198.329 19.444 198.713 19.996L203.753 27.952C204.569 29.272 204.977 30.412 204.977 31.372C204.977 32.404 204.389 33.184 203.213 33.712C202.061 34.216 200.561 34.468 198.713 34.468ZM212.353 34.468C210.097 34.468 208.333 34.408 207.061 34.288C206.941 34.048 206.881 33.772 206.881 33.46C206.881 33.148 206.929 32.884 207.025 32.668C207.817 32.788 209.161 32.848 211.057 32.848C212.281 32.848 213.145 32.74 213.649 32.524C214.129 32.332 214.369 31.948 214.369 31.372C214.369 31.132 214.201 30.7 213.865 30.076L208.825 22.12C208.249 21.256 207.877 20.596 207.709 20.14C207.541 19.684 207.457 19.156 207.457 18.556C207.457 16.516 209.749 15.496 214.333 15.496C215.725 15.496 216.817 15.544 217.609 15.64C217.753 15.928 217.825 16.204 217.825 16.468C217.825 16.684 217.765 16.948 217.645 17.26C216.973 17.164 215.941 17.116 214.549 17.116C212.701 17.116 211.777 17.596 211.777 18.556C211.777 18.964 211.969 19.444 212.353 19.996L217.393 27.952C218.209 29.272 218.617 30.412 218.617 31.372C218.617 32.404 218.029 33.184 216.853 33.712C215.701 34.216 214.201 34.468 212.353 34.468ZM222.826 12.544C222.394 12.592 222.202 12.208 222.25 11.392V9.556C222.25 9.148 222.286 8.872 222.358 8.728C222.454 8.584 222.658 8.488 222.97 8.44L225.778 8.332C226.21 8.284 226.402 8.668 226.354 9.484V11.32C226.354 11.728 226.306 12.004 226.21 12.148C226.138 12.292 225.946 12.388 225.634 12.436L222.826 12.544ZM230.098 33.172C230.098 33.364 230.062 33.568 229.99 33.784C228.406 34.24 226.786 34.468 225.13 34.468C224.41 34.468 223.906 34.432 223.618 34.36C223.33 34.312 223.138 34.192 223.042 34C222.97 33.784 222.946 33.424 222.97 32.92V19.384C222.97 18.064 222.838 17.404 222.574 17.404L220.09 17.476C219.994 17.308 219.946 17.08 219.946 16.792C219.946 16.6 219.982 16.396 220.054 16.18C221.638 15.724 223.258 15.496 224.914 15.496C225.634 15.496 226.138 15.532 226.426 15.604C226.714 15.652 226.894 15.784 226.966 16C227.062 16.192 227.098 16.54 227.074 17.044V30.58C227.074 31.852 227.194 32.488 227.434 32.488H229.954C230.05 32.656 230.098 32.884 230.098 33.172ZM236.857 34.468C234.601 34.468 232.837 34.408 231.565 34.288C231.445 34.048 231.385 33.772 231.385 33.46C231.385 33.148 231.433 32.884 231.529 32.668C232.321 32.788 233.665 32.848 235.561 32.848C236.785 32.848 237.649 32.74 238.153 32.524C238.633 32.332 238.873 31.948 238.873 31.372C238.873 31.132 238.705 30.7 238.369 30.076L233.329 22.12C232.753 21.256 232.381 20.596 232.213 20.14C232.045 19.684 231.961 19.156 231.961 18.556C231.961 16.516 234.253 15.496 238.837 15.496C240.229 15.496 241.321 15.544 242.113 15.64C242.257 15.928 242.329 16.204 242.329 16.468C242.329 16.684 242.269 16.948 242.149 17.26C241.477 17.164 240.445 17.116 239.053 17.116C237.205 17.116 236.281 17.596 236.281 18.556C236.281 18.964 236.473 19.444 236.857 19.996L241.897 27.952C242.713 29.272 243.121 30.412 243.121 31.372C243.121 32.404 242.533 33.184 241.357 33.712C240.205 34.216 238.705 34.468 236.857 34.468ZM254.746 33.172C254.746 33.364 254.71 33.568 254.638 33.784C253.054 34.24 251.434 34.468 249.778 34.468C249.058 34.468 248.554 34.432 248.266 34.36C247.978 34.312 247.786 34.192 247.69 34C247.618 33.784 247.594 33.424 247.618 32.92V17.62L244.99 17.8C244.87 17.392 244.81 17.092 244.81 16.9C244.81 16.588 244.858 16.348 244.954 16.18L247.618 16V10.564C247.618 10.228 247.81 9.988 248.194 9.844C249.106 9.58 250.078 9.448 251.11 9.448C251.518 9.448 251.722 9.652 251.722 10.06V15.748L254.566 15.532C254.686 15.94 254.746 16.24 254.746 16.432C254.746 16.744 254.698 16.984 254.602 17.152L251.722 17.368V30.58C251.722 31.9 251.854 32.56 252.118 32.56L254.602 32.488C254.698 32.656 254.746 32.884 254.746 33.172ZM275.275 33.172C275.275 33.364 275.239 33.568 275.167 33.784C273.631 34.24 272.011 34.468 270.307 34.468C269.659 34.468 269.179 34.432 268.867 34.36C268.579 34.312 268.387 34.204 268.291 34.036C268.195 33.892 268.147 33.64 268.147 33.28C265.387 34.072 263.011 34.468 261.019 34.468C259.699 34.468 258.763 34.264 258.211 33.856C257.659 33.448 257.383 32.74 257.383 31.732V26.692C257.383 25.684 257.635 24.904 258.139 24.352C258.643 23.776 259.447 23.368 260.551 23.128C263.215 22.72 265.747 22.456 268.147 22.336V19.528C268.147 18.616 267.967 18.016 267.607 17.728C267.271 17.44 266.563 17.296 265.483 17.296C264.811 17.296 263.467 17.464 261.451 17.8C259.699 18.136 258.547 18.388 257.995 18.556C257.875 18.268 257.815 17.968 257.815 17.656C257.815 17.344 257.863 17.104 257.959 16.936C261.007 15.976 264.535 15.496 268.543 15.496C269.839 15.496 270.775 15.7 271.351 16.108C271.951 16.516 272.251 17.188 272.251 18.124V30.58C272.251 31.9 272.383 32.56 272.647 32.56L275.131 32.488C275.227 32.656 275.275 32.884 275.275 33.172ZM263.755 32.452C264.883 32.452 266.347 32.188 268.147 31.66V23.956C266.827 24.004 265.579 24.136 264.403 24.352C263.203 24.568 262.387 24.856 261.955 25.216C261.643 25.456 261.487 25.996 261.487 26.836V30.832C261.487 31.912 262.243 32.452 263.755 32.452ZM287.979 17.656C286.899 17.656 285.195 17.992 282.867 18.664V33.352C282.867 33.688 282.675 33.928 282.291 34.072C281.379 34.336 280.407 34.468 279.375 34.468C278.967 34.468 278.763 34.264 278.763 33.856V19.384C278.763 18.064 278.631 17.404 278.367 17.404L275.883 17.476C275.787 17.308 275.739 17.08 275.739 16.792C275.739 16.6 275.775 16.396 275.847 16.18C277.431 15.724 279.051 15.496 280.707 15.496C281.427 15.496 281.931 15.532 282.219 15.604C282.507 15.652 282.687 15.784 282.759 16C282.855 16.192 282.891 16.54 282.867 17.044L284.199 16.648C285.039 16.408 285.639 16.252 285.999 16.18C285.975 16.18 286.239 16.12 286.791 16C287.463 15.832 288.279 15.688 289.239 15.568C289.815 15.52 290.223 15.496 290.463 15.496C291.783 15.496 292.719 15.712 293.271 16.144C293.823 16.552 294.099 17.248 294.099 18.232V30.58C294.099 31.9 294.231 32.56 294.495 32.56L296.979 32.488C297.075 32.656 297.123 32.884 297.123 33.172C297.123 33.364 297.087 33.568 297.015 33.784C295.431 34.24 293.811 34.468 292.155 34.468C291.435 34.468 290.931 34.432 290.643 34.36C290.355 34.312 290.163 34.192 290.067 34C289.995 33.784 289.971 33.424 289.995 32.92V19.132C289.995 18.148 289.323 17.656 287.979 17.656ZM308.043 33.172C308.043 33.364 308.007 33.568 307.935 33.784C306.351 34.24 304.731 34.468 303.075 34.468C302.355 34.468 301.851 34.432 301.563 34.36C301.275 34.312 301.083 34.192 300.987 34C300.915 33.784 300.891 33.424 300.915 32.92V17.62L298.287 17.8C298.167 17.392 298.107 17.092 298.107 16.9C298.107 16.588 298.155 16.348 298.251 16.18L300.915 16V10.564C300.915 10.228 301.107 9.988 301.491 9.844C302.403 9.58 303.375 9.448 304.407 9.448C304.815 9.448 305.019 9.652 305.019 10.06V15.748L307.863 15.532C307.983 15.94 308.043 16.24 308.043 16.432C308.043 16.744 307.995 16.984 307.899 17.152L305.019 17.368V30.58C305.019 31.9 305.151 32.56 305.415 32.56L307.899 32.488C307.995 32.656 308.043 32.884 308.043 33.172Z" fill="black"/>
<path d="M172.334 44.111C203.534 43.6323 234.747 44.7025 265.719 47.3133C280.449 48.5196 295.472 49.9029 309.917 52.2361C309.948 52.288 309.972 52.317 309.984 52.3704C310.106 52.8598 309.506 54.5787 309.127 55C305.404 54.7491 301.629 54.0706 297.925 53.6374C290.592 52.7703 283.236 51.9999 275.857 51.3267C249.373 48.7479 222.671 47.3187 195.918 47.0474C162.651 46.6645 129.386 47.8649 96.3665 50.6397C85.9424 51.4919 75.5758 52.6311 65.2885 54.0546C64.0644 54.2193 59.9312 55.0278 58.9279 54.6985C58.4886 54.3985 58.275 54.0518 58.1142 53.65C57.9198 53.1591 57.9606 52.7135 58.3374 52.27C59.4463 51.5912 65.8045 50.9574 67.6887 50.6983C75.499 49.6672 83.3549 48.7989 91.2421 48.0949C118.12 45.589 145.206 44.2584 172.334 44.111Z" fill="black"/>
<path d="M23 13C23 13 22.721 8.0249 24.5 6.5C26.279 4.9751 30 7.49999 30 7.49999" stroke="black" stroke-width="3" stroke-linecap="round" stroke-linejoin="round"/>
<path d="M17 12.9895C17 12.9895 17.279 8.0144 15.5 6.4895C13.721 4.9646 10 7.48949 10 7.48949" stroke="black" stroke-width="3" stroke-linecap="round" stroke-linejoin="round"/>
<path d="M32 14H8C5.79086 14 4 15.7909 4 18V34C4 36.2091 5.79086 38 8 38H32C34.2091 38 36 36.2091 36 34V18C36 15.7909 34.2091 14 32 14Z" stroke="black" stroke-width="3" stroke-linecap="round" stroke-linejoin="round"/>
<path d="M2 26H4" stroke="black" stroke-width="3" stroke-linecap="round" stroke-linejoin="round"/>
<path d="M36 26H38" stroke="black" stroke-width="3" stroke-linecap="round" stroke-linejoin="round"/>
<path d="M26 24V28" stroke="black" stroke-width="3" stroke-linecap="round" stroke-linejoin="round"/>
<path d="M14 24V28" stroke="black" stroke-width="3" stroke-linecap="round" stroke-linejoin="round"/>
</svg>
